# xmcd
#
# Track frame offsets: 
#        150
#        12852
#        26667
#        41901
#        57245
#        68428
#        83436
#        95488
#        112101
#        125031
#        142087
#        159038
#
# Disc length: 2353 seconds
#
# Revision: 0
# Processed by: cddbd v1.5.2PL0 Copyright (c) Steve Scherf et al.
# Submitted via: ExactAudioCopy v0.99pb5
#
DISCID=99092f0c
DTITLE=LoCash Cowboys - LoCash Cowboys
DYEAR=1900
DGENRE=Country
TTITLE0=Hey Hey Hey
TTITLE1=Chase A Little Love
TTITLE2=Love Drunk
TTITLE3=Best Seat In The House
TTITLE4=Bounce
TTITLE5=You Make It Look Good
TTITLE6=Little Miss Crazy Hot
TTITLE7=I Hope
TTITLE8=Fine
TTITLE9=Keep in Mind
TTITLE10=Independent Trucker (Featuring George Jones)
TTITLE11=C.O.U.N.T.R.Y
EXTD=
EXTT0=
EXTT1=
EXTT2=
EXTT3=
EXTT4=
EXTT5=
EXTT6=
EXTT7=
EXTT8=
EXTT9=
EXTT10=
EXTT11=
PLAYORDER=
